<svg id="Layer_1" data-name="Layer 1" xmlns="http://www.w3.org/2000/svg" viewBox="0 0 274.93 308.78"><defs><style>.cls-1{font-size:207.28px;font-family:Bender;}</style></defs><title>dp_female</title><text class="cls-1" transform="translate(0 249.71)">RO</text><path d="M475.36,342a5,5,0,1,1-5-5A5,5,0,0,1,475.36,342Z" transform="translate(-358.36 -280.82)"/><path d="M633.29,342a5,5,0,1,1-5-5A5,5,0,0,1,633.29,342Z" transform="translate(-358.36 -280.82)"/><path d="M508.29,320.75a5,5,0,1,1-5-5A5,5,0,0,1,508.29,320.75Z" transform="translate(-358.36 -280.82)"/><path d="M600.75,320.75a5,5,0,1,1-5-5A5,5,0,0,1,600.75,320.75Z" transform="translate(-358.36 -280.82)"/><path d="M557,289.66a8.84,8.84,0,1,1-8.85-8.84A8.83,8.83,0,0,1,557,289.66Z" transform="translate(-358.36 -280.82)"/><path d="M602.48,405.73l2.1-5.34,3-7.57,5.95-15.15,3-7.57,11.75-28.37-36,28.37,3.23-49.63-25.69,46.15-21.66-77.93-20.85,75.37-24.26-43.59,3.2,49.63-35.95-28.37,11.76,28.37,3,7.57,6,15.15,3,7.57,2.93,7.43A321.45,321.45,0,0,1,602.48,405.73Z" transform="translate(-358.36 -280.82)"/><path d="M604.07,407.7l-1.59,4A321.45,321.45,0,0,0,497,413.8l-2.39-6.1h-3.68l.18.43,3,7.57,2.93,7.43A321.45,321.45,0,0,1,602.48,421l2.1-5.34,3-7.57.18-.43Z" transform="translate(-358.36 -280.82)"/></svg>